<?xml version="1.0" encoding="UTF-8"?>
<svg version="1.1" viewBox="0 0 2040 2040" width="510" height="510" xmlns="http://www.w3.org/2000/svg">
<path transform="translate(1381,709)" d="m0 0h26l16 4 16 8 11 8 11 12 8 13 6 17 1 5 1 41v101l-1 4-8 4h-2l-1-2-4-1 4 7 6 10 5 15 1 5v13l-3 20-6 20-6 11-9 10-4 4h-2l-2 4-1 4 10 6 7 7 6 14 2 8 4 34 3 12 5 8 5 4 3 1v-22l9-4 8-5 3-4 1-4v-169l-5-6-13-7-6-7 1-7 6-5 2-1 10-1h11l10 2 10 6 5-2 12-5 10-1 14 2 8 5 3 3v6l-8 7-11 6-4 6-1 7v161l3 6 16 8 9 3 3-3 14-8 4-6 1-4v-262l-2-7-5-2-14-7-3-5v-6l4-5 9-4 5-1h15l12 5 3 2h7l12-5 9-2h9l9 3 8 6 1 5-5 6-14 9-5 6-1 9v242l2 11 5 4 3 1h8l6-4 4-8 1-4v-8l-6-17 1-6 7-2 7 2 6 5 6 10 4 18v20l1 8 8-2 6-4 4-5 2-6-1-262-3-6-5-4-10-5-5-5-1-7 7-6 10-4h16l10 4 7 4 9-3 11-4 5-1 14 1 12 6 2 2v6l-3 5-8 5-10 5-3 8-1 23v227l3 9 5 4 7 2 7-3 5-6 2-8v-8l-4-10-2-6 1-6 5-3 9 1 7 5 5 10 3 12 3 33 3 8 4 6v6l-5 4h-57l-18-4-7-3-7 1-11 5-9 1h-82l-11-2-10-5-5 1-8 4-9 2h-10l-12-2-6-4-14 7-16 2-20-5v2l4 2 2 3 1 6v11l-4 10-6 8-7 6-9 3h-22l-14-3-12-5-9-6-10-9-9-12-7-12-11-23-6-11-8-12-9-10-10-9-18-10-13-5v29l4 8 14 8 5 6-1 5-5 6-7 3-6 1h-10l-12-3-9-5-4 1-8 5-10 2h-11l-9-3-6-5-3-7 9-8 11-6 4-5 1-15v-132l-1-10-5-7-15-10-1-6 3-8 4-3 13-2 1-116 4-18 8-16 7-9 13-13 14-9 14-5zm2 34-11 3-10 6-10 10-7 14-3 12-1 7v95l1 19 4-1 15-8 16-4h27l21 5 9 4 10 6h2l1-87v-24l-1-15-4-13-6-10-7-8-11-7-13-4zm-7 187-9 2-4 2-2 8v72l2 7 8 3 6 1h11l11-4 9-6 8-9 5-10 2-9v-19l-4-13-7-12-8-7-9-4-13-2z" fill="#F9F9F9"/>
<path transform="translate(640,709)" d="m0 0h26l13 3 17 8 10 7 7 6 9 12 8 16 5 17 1 6 1 124 7 1 21 1 6 2 1 3v8l-3 6-6 7-8 7-11 13-10 13-5 3-9-1-4-5-7-13-3-3v-2l-4-2-10-4h-10l-9 4-5 6-1 3v11l5 5 10 5 26 10 25 10 16 8 12 8 7 7 7 11 5 5 9-3 19-12 11-5 17-3 6-9 14-32 8-19 1-4v-13l-4-8-5-4-6-2-20-1 1-5 5-5 10-7 11-4 7-1h14l9 3 12 6 6 1 17-3 26-8 6-2 11-1 5 2 3 3v8l-4 6-9 11-3 6 1 14 9 39 24 92 12 44 7 19 6 12 9 12 5 5 3 1 2-6 5-8 7-6 11-4 9-1 12 2 6 4 5 8 1 3v14l-4 12-6 11-7 8-10 7-12 4h-20l-15-4-14-7-10-8-7-6-11-14-11-21-13-34-9-29-8-28-2-4-63-1-7 15-15 38v5l8 3 11 3 2 2-1 4-16 5-5 1h-14l-16-4-17-6-13-3h-20l-4-4 1-3 6-2 2-5 15-6 14-3 4-6 6-16 9-21-6 2-9 1h-20l-5 24-4 11-9 13-10 9-14 9-13 5-20 4-10 1h-24l-20-2-15-4-19-9-10-8-7-7-6-10-3-12v-16l3-12 7-11 8-7 11-5 9-2h18l14 5 11 8 6 7 6 12 1 4-2 5-5 4-6-1-10-6-7-2h-7l-5 4-3 8 1 8 6 8 9 7 8 3 6 1h23l10-3 11-8 6-7 3-5 2-8v-11l-4-11-8-9-15-7-36-12-22-8-11-6-10-9-7-9-5-13-1-5v-19l3-16 5-10 9-10 9-8 11-7 12-5 11-3 7-1h15l11 2v-98l-1-21-5-12-8-11-11-8-7-3-12-2h-14l-13 3-10 6-8 7-9 14-3 12-1 20v111l-2 6-4 2h-19l-7-3-1-1-1-7 1-121 2-15 7-21 8-14 9-10 9-8 11-7 12-5zm264 263-5 8-8 16-10 21 4 4 39 12-1-8-6-20-8-25-3-8z" fill="#FBFBFA"/>
<path transform="translate(1008,550)" d="m0 0h33l20 2 23 5 24 8 23 11 17 10 17 13 11 9 13 13 9 11 10 13 13 21 9 19 9 24 6 23 3 17 11 4 3 5v11l-3 10-2 6-5 5-5 2h-47l-10-4-3-3-4-23-50-1-11-1-3-6-5-16-9-16-8-11-10-10-13-10-15-8-21-7-12-2h-21l-18 4-17 6-14 8-13 10-10 10-10 15-8 17-5 13-3 3-12 1h-30l-1 11-3 9-6 8-5 3h-47l-9-3-4-2-2-3 1-7-2-5v-15l2-6 9-1h3l2-17 6-25 9-24 8-17 11-18 10-14 13-15 15-15 11-9 11-8 21-13 23-11 22-7 12-3z" fill="#CAAA6D"/>
<path transform="translate(240,859)" d="m0 0h33l18 4 16 7 18 10 8 5 15 7 8 5 6 9 3 10-1 9-5 10-8 9-9 4-11 1-10-2-7-4-7-8-3-7-3-11-4-6-8-5-7-2h-8l-14 4-16 8-11 9-10 9-10 13-9 17-4 13-2 14v21l4 17 8 17 9 13 10 11 15 11 12 7 17 5h12l10-5 8-9 5-15 7-8 7-5 10-2h7l1-1v-8l6-2 12-2 13-5 11-7 12-7 9-3 12-2 5-5 15-31 10-26 1-4v-12l-5-8v-2l-5-2-3-1-18-1-2-1 1-7 11-8 10-4 15-2 11 1 16 7 7 2 16-2 24-7 10-1 6 3 2 3-1 8-12 12-4 10v12l6 20 16 49 16 51 10 32 7 14 8 7 4 2 16 4 2 2-6 4-9 2h-23l-16-2-10-4-7-4-7-1-4 1h-14l-2-2v-6l2-4 6-5h2l1-7-4-20-5-17-1-1-64-1-6 14-12 30-3 7-1 7 20 6v4l-4 3-12 4-6 1h-15l-12-3-16-6-15-3-20-1-2-4 2-4h2l-1-8-18 7-15 10-18 8-18 5-14 2h-20l-23-5-14-5-13-7-14-10-11-10-9-11-10-14-8-15-7-19-4-16-2-18v-14l2-21 5-21 6-16 8-16 6-10 7-9 9-10 8-7 14-9 17-9 18-6zm246 116-5 6-8 16-11 19 2 3 32 10h6l-1-9-12-41-1-4zm-137 80m1 1m8 0v5l4 6 2 13-2 13-1 6h-2v2l-5 2-5 3v1l10-1 6-3 13-3 6-4 4-8 11-28v-1l-13 1h-11l-4-1-6 1h-5l-1-4z" fill="#FCFCFB"/>
<path transform="translate(1037,452)" d="m0 0h8l15 6 64 28 114 49 29 13 21 9 72 31 32 14 72 31 99 43 35 15 18 8 7 5-2 6-8 18-5 8-3 1-12-5-79-35-196-84-32-14-28-12-64-28-47-20-27-12-60-26-16-7-6-1-29 12-38 16-23 10-37 15-24 10-41 17-39 16-26 11-28 12-58 24-28 12-42 17-43 18-28 12-32 13-36 15-35 14-26 11-10 4-5-1-2-2-7-27 1-5 16-8 26-11 70-29 38-16 75-31 43-18 39-16 79-33 41-17 44-18 31-13 41-17 34-14 23-10z" fill="#C8A96D"/>
<path transform="translate(1608,798)" d="m0 0h15l12 5 3 2h7l12-5 9-2h9l9 3 8 6 1 5-5 6-14 9-5 6-1 9v242l2 11 5 4 3 1h8l6-4 4-8 1-4v-8l-6-17 1-6 7-2 7 2 6 5 6 10 4 18v20l1 8 8-2 6-4 4-5 2-6-1-262-3-6-5-4-10-5-5-5-1-7 7-6 10-4h16l10 4 7 4 9-3 11-4 5-1 14 1 12 6 2 2v6l-3 5-8 5-10 5-3 8-1 23v227l3 9 5 4 7 2 7-3 5-6 2-8v-8l-4-10-2-6 1-6 5-3 9 1 7 5 5 10 3 12 3 33 3 8 4 6v6l-5 4h-57l-18-4-7-3-7 1-11 5-9 1h-82l-11-2-10-5-5 1-8 4-9 2h-10l-12-2-4-4v-2h-2l-1-6 2-6 16-9 4-6 1-4v-262l-2-7-5-2-14-7-3-5v-6l4-5 9-4z" fill="#FAFAF9"/>
<path transform="translate(1153,855)" d="m0 0h35l25 5 23 7h7l10-5h9l7 6 8 15 2 6 1 16v8l-3 14-7 14-7 9-10 10-14 8-15 5h-24l-18-6-10-6-6-7-5-10-1-3v-13l4-10 5-7 8-4 7-1 10 2 6 4v5l-8 11-3 3-1 6 3 3 7 2 1-5 5 1 1 2 5-5 3-9v-10l-3-10-9-10-14-7-4-1h-16l-12 3-16 8-9 7-8 8-7 10-6 12-5 17-2 13v36l3 18 6 18 7 12 11 12 9 7 13 6 11 3h18l14-5 7-6 3-5 2-9 1-9v-13l-2-10-5-6-5-3h-7l-16 4h-19l-14-3-7-4-1-4 5-3 11-1 17-8 8-4 6-2h21l26 3h23l25-4 7 1 4 4 1 9-6 8-6 5h-2l-3 6-1 12v29l1 9 5 5 6 5 3 9-3 7-7 9-11 9-17 10-18 7-25 5-10 1h-28l-21-3-16-5-16-8-12-8-10-9-12-12-10-15-8-17-7-21-5-21-2-16v-18l4-23 6-20 9-19 11-17 8-10 16-16 15-10 17-8 17-4zm42 59 1 2z" fill="#FBFBFA"/>
<path transform="translate(153,1203)" d="m0 0h698l2 4v22l-1 15-3 4-592 1h-112l-2-4v-41z" fill="#C9A96D"/>
<path transform="translate(1456,1202)" d="m0 0h118l287 1 6 2v27l-1 12-3 4h-693l-3-7v-35l2-3z" fill="#CBAB6D"/>
<path transform="translate(1018,596)" d="m0 0 26 1 18 3 18 5 18 7 15 8 15 10 14 11 16 16 13 17 10 17 8 17 7 21 4 17v6l-2 2-9 1-3 5-2 1h-51l-11-1-3-6-5-16-9-16-8-11-10-10-13-10-15-8-21-7-12-2h-21l-18 4-17 6-14 8-13 10-10 10-10 15-8 17-5 13-3 3-12 1h-29l-4-4-1-2-11-1-2-2v-7l7-27 10-25 10-17 10-13 11-13 9-9 10-8 13-9 16-9 16-7 15-5 17-4 11-2z" fill="#F2E7DB"/>
<path transform="translate(450,898)" d="m0 0 11 1 16 7 7 2 16-2 24-7 10-1 6 3 2 3-1 8-12 12-4 10v12l6 20 16 49 16 51 10 32 7 14 8 7 4 2 16 4 2 2-6 4-9 2h-23l-16-2-10-4-7-4-7-1-4 1h-14l-2-2v-6l2-4 6-5h2l1-7-4-20-5-17-1-1-64-1-6 14-12 30-3 7-1 7 20 6v4l-4 3-12 4-6 1h-15l-12-3-16-6-15-3-20-1-2-4 2-4h2l-1-8 13-3 9-3 10-3 5-5 13-33-12 1h-11l-4-1-6 1-5-1-1-2 1 4 3 5-1 4-5-8-5-6-12-4h-10l-12 4-4 3-2-1 8-7 9-3h10l1-1v-8l6-2 12-2 13-5 11-7 12-7 9-3 12-2 5-5 15-31 10-26 1-4v-12l-5-8v-2l-5-2-3-1-18-1-2-1 1-7 11-8 10-4zm36 77-5 6-8 16-11 19 2 3 32 10h6l-1-9-12-41-1-4z" fill="#FBFAFA"/>
<path transform="translate(640,709)" d="m0 0h26l13 3 17 8 10 7 7 6 9 12 8 16 5 17 1 6 1 124 7 1 21 1 6 2-1 3-3-2h-19l-9-2-11-4-20-6-15-2h-16l-16 3-13 5-8 5-2-1 9-6 12-5 11-3 7-1h15l11 2v-98l-1-21-5-12-8-11-11-8-7-3-12-2h-14l-13 3-10 6-8 7-9 14-3 12-1 20v111l-2 6-4 2h-19l-7-3-1-1-1-7 1-121 2-15 7-21 8-14 9-10 9-8 11-7 12-5z" fill="#E3CDAE"/>
<path transform="translate(1381,709)" d="m0 0h26l16 4 16 8 11 8 11 12 8 13 6 17 1 5 1 41v101l-1 4-8 4h-2l-1-2-4-1 4 7 6 10 5 15 1 5v13l-3 20-2 7h-1l1-11 2-14v-13l-2-12-4-9-4-8-8-10-6-7-14-8-14-6-14-3-8-1h-22l-17 4-19 10-4-2v-2l-6-1-14-6-6-1-15 2-5 3 2-4 3-2 13-2 1-116 4-18 8-16 7-9 13-13 14-9 14-5zm2 34-11 3-10 6-10 10-7 14-3 12-1 7v95l1 19 4-1 15-8 16-4h27l21 5 9 4 10 6h2l1-87v-24l-1-15-4-13-6-10-7-8-11-7-13-4z" fill="#E1CBAC"/>
<path transform="translate(146,1284)" d="m0 0h36l29 1 13 2 9 7 5 7 4 14v13l-3 15-6 11-10 11-12 7 1 9 6 16 11 21 8 11 7 7 2 6-3 5-9 4-9 1-10-3-8-6-9-13-16-32-5-9-2-1v17l3 15 4 12 8 14-2 5-3 2-12-2-8-1h-21l-5-3v-10l3-20 1-58 1-29v-26l-4-13v-5zm37 19-4 4-2 4-1 7-2 32v29l6-1 12-8 6-7 4-8 3-16v-17l-3-9-6-7-6-3z" fill="#F8F8F7"/>
<path transform="translate(1127,1284)" d="m0 0h11l6 5 9 17 3 11 1 6v32l-3 16-5 13-6 11-9 11-9 7-7 3-7 1-11-2-8-4h-1l2 13 7 14 4 6v6l-2 2-6 1-13-3h-20l-7 1h-11l-1-4 7-12 3-12v-97l-2-22-4-12v-5l1-1h63zm-32 21-5 3-2 5-2 21 1 50 1 12 2-2v-3l3 1 9-8 5-1 6 4 4 9h3l4-12 2-14v-11l-3-22-4-12-6-10-7-8-4-2zm-6 100 1 2z" fill="#FBFAFA"/>
<path transform="translate(449,1289)" d="m0 0h6l1 4-6 25-2 10 9 1 6 3v7l-4 12-1 1-10 1v31l1 28 3 19 5 14-1 4-3 2h-37l-2-1 1-6 3-10 1-75-1-10-8-6-2-3-4 10-5 10-4 4-7-1-11-5-14-5h-8l-2 3 1 6 5 6 18 11 12 7 10 9 4 5 3 8v9l-3 12-7 11-9 7-10 4-5 1h-8l-13-4-10-6-7-9-5-11-2-10v-7l1-3h2l3 17 6 1 8 6 4 5 5 3h8l5-6 2-5v-7l-2-4-18-13-13-13-3-5v-2h-2l1 5-2 1-1-7 3-21 5-12 4-6 5-4 10-3h38l23 1 8-7 7-11 8-15 5-10zm-42 47 1 2zm7 1m2 0m-1 1-2 1 1 2 2-1z" fill="#F8F7F7"/>
<path transform="translate(1352,1331)" d="m0 0h7l5 3 2 4 5-1 7-4h36l12-1h17l8 1 1 3-5 28-1 8v25l3 34 2 8v10l-3 2-6-1-33-1 1-6 7-17 2-10v-41l-2-15-7-20-1-3-4 4-7 20-5 4h-7l-12-3-1 11 1 59 3 5 6 7v5l-2 1h-12l-18-1-3 1h-10l-2-3 4-5 2-9 2-35-1-27-1-15-6-18v-3l3-2z" fill="#F7F6F6"/>
<path transform="translate(575,1332)" d="m0 0h25l3 3 2 14v24l-2 28v17l3 6 7 1 4-12 1-20-1-42-2-10v-8l7-1 31 1-1 7-5 2-11 2h-5v26l1-16 2-7 3-2 15-1-2 28v35l2 16 5 13 2 3 1 10-8 3h-8l-25-8-7 1-6 4-4 3-6-1-22-14-4-4v-8l5-23 2-16v-13l-3-21-4-9-6-7v-3zm55 42 1 2zm0 4v6h1v-6z" fill="#F9F8F7"/>
<path transform="translate(836,1332)" d="m0 0h11l19 2h24l5-1h18l6 3-1 12-4 25-1 12v24l2 15 5 13 6 10-1 2h-2v2l-3 1h-8l-11-1-10-1-4-5-1-7v-20l1-35v-27l-2-4-2-1h-8l-4 4-2 7v63l2 9 3 8v7l-3 2h-12l-22-1-4-2-1-4 5-17 4-23v-14l-4-36-5-17v-3z" fill="#F6F6F5"/>
<path transform="translate(510,1333)" d="m0 0h45l1 3-1 9v12l-1 14-1 32 2 28 4 16-4 1h-22l-12-1-10 1-5 3-4 1h-7l-10-4-10-9-4-6-4-11-1-7v-19l3-17 5-12 7-12 9-11 10-7zm22 9m3 0 1 4 2-1 4 2h5l1-4-1-1zm-23 5-6 4-5 10-3 11-2 15v19l3 12 3 3 3 1 11 1 3 1v12h2l1-5v-7l-1-2 3-1 1-6v-53l-4-10-6-5zm8 92-1 4 2 1 1-3z" fill="#F8F8F7"/>
<path transform="translate(1232,1332)" d="m0 0h15l5 2-1 11-3 18-1 17v35l1 13 4 10v9l-7 2-25-1-3-1v-7l-2 2-1 5h-6l-8 4-3 1h-9l-9-4-8-7-5-8-4-12-2-11v-12l3-15 4-12 6-12 10-13 9-8 9-4 5-1zm-25 15-8 7-5 14-4 19-1 12 3 15 4 6 3 2 9 1 4 1 2 12 2 2 1-1 2-31v-51l-3-6-3-2z" fill="#F9F8F7"/>
<path transform="translate(777,1333)" d="m0 0h44l-1 15-3 26v56l2 5 3 4 1 6h-2v2l-2 1h-26l-7-2-1-1v-10l2-15 1-14v-50l-3-6-3-2-8 1-6 9-4 12-2 15v27l2 8 16 3 2 3 1 8-1 8 2 4-4 1-6 2-6 3h-10l-10-4-9-9-5-9-3-11v-29l4-14 5-12 6-10 7-9 9-7 9-4z" fill="#F5F5F4"/>
<path transform="translate(1822,1332)" d="m0 0h25l15 1 2 1-1 10-3 14-2 22v42l2 9 5 12 1 4-3 1h-34l-5-3-8 5-7 2h-9l-8-3-8-6-6-10-5-15-1-5v-16l5-21 7-16 9-13 10-9 8-4zm-3 15-8 7-5 10-3 11-2 13v21l3 9 5 4 7 2h11l2 8h2v-76l-4-8-1-1z" fill="#F8F7F7"/>
<path transform="translate(1583,1332)" d="m0 0h32l8 3 5 10 9 25 3 12-1 5-19 6-26 9-7 2-2-1 4 8 8 7 10 3 13-2 8-7 3-1 6 3 1 2v11l-3 6-9 10-9 6-5 2-9 1-11-2-12-6-9-8-7-10-4-10-2-11v-20l3-21 5-14 7-11 7-6zm12 18-6 3-4 5-3 8-1 4v10l3 4 1-1h20l1-1v-11l-4-15-4-6z" fill="#F7F6F6"/>
<path transform="translate(273,1333)" d="m0 0h34l6 2 4 5 5 12 7 30 1 4-7 3-19 6-20 6-9 2 4 8 10 8 8 2h11l9-6 5-5 4 1 3 16-3 6-9 10-12 7-3 1h-18l-10-4-10-8-7-8-6-12-3-18v-17l3-17 5-16 6-10 7-6zm11 17-5 2-4 8-3 11-1 9 1 4 16-2 9-3-1-9-6-16-4-4zm-12 45 1 2zm1 2 1 3z" fill="#F8F7F7"/>
<path transform="translate(967,1286)" d="m0 0 5 1-1 13-6 30 11-1 3 1v13l-3 6-5 4-6 3v49l2 21 5 13 1 8-3 3-38 1-2-3 1-5 4-12 1-5 1-65-2-9-4-10 2-7 8-6 7-9 13-28 4-5z" fill="#FBFBFA"/>
<path transform="translate(1496,1287)" d="m0 0 5 1 1 8-3 21-1 5-1 83 1 17 4 13 1 10-2 2-21 1h-11l-4-1-1-2 1-9 2-12 2-41v-53l-3-12-4-7 1-4 10-6 14-7z" fill="#FCFBFB"/>
<path transform="translate(1278,1331)" d="m0 0 10 2 5 5 2 4 3-3 4-5 2-1h19l4 1h8l-1 5-6 9-5 12-6 6-7-1-5-2-5 1-1 4v19l1 37 2 11 7 10-1 4-1 1h-41l-4-2 2-5 4-14 1-6v-67l-3-8-5-5-2-8 3-2z" fill="#F5F4F3"/>
<path transform="translate(1544,1287)" d="m0 0 4 1v10l-2 10-1 21v76l1 18 2 9 6 13-1 2h-46l-3-3-1-4 2-4 3 1 2 6 2 1v-8l3-18 2-41v-47l-2-12-5-5-1-2h3l1-5 5-4 12-5 9-6z" fill="#FCFBFA"/>
<path transform="translate(1664,1331)" d="m0 0h7l5 3 2 4 4 1 3-7h21l12 1-3 9-4 9-2 9-5 4-8 1-6-2h-5l-2 3-1 9v47l2 10 7 10 1 6-2 2h-7l-2-1h-19l-3 1h-11l-1-5 4-13 2-10 1-14v-33l-2-16-4-11-4-8v-5l3-2z" fill="#FAF9F8"/>
<path transform="translate(679,1331)" d="m0 0h9l4 2 4 5 6-2 5-1v-2h24l1 1-1 12-2 13-6 6-10-1-10-2-2 15v38l2 16 3 5 6 8 1 4-3 2h-9l-4-1h-18l-7 2-3-1-1-2 1-12 4-12v-63l-4-12-9-10-4-4 13-2z" fill="#F8F7F7"/>
<path transform="translate(449,1289)" d="m0 0h6l1 4-6 25-2 10 9 1 6 3v7l-4 12-1 1-10 1v31l1 28 3 19 5 14-1 4-3 2h-37l-2-1 1-6 5-10 1-4v-74l-3-10-2-4 1-5 9-7 9-13 8-16z" fill="#FBFAFA"/>
<path transform="translate(1725,1332)" d="m0 0h35l1 1-1 10-2 11-2 22v44l2 14 3 14-3 3h-35l-4-4 1-8 5-14 1-5 1-15v-43l-6-21-1-7z" fill="#FBFAFA"/>
<path transform="translate(1426,1332)" d="m0 0h17l8 1 1 3-5 28-1 8v25l3 34 2 8v10l-3 2-6-1-33-1 1-6 7-17 2-10v-41l-1-17-4-12-2-4v-8l2-1z" fill="#FCFBFA"/>
<path transform="translate(143,1204)" d="m0 0h2v40h677l29 1-2 3-592 1h-112l-2-4z" fill="#817F7E"/>
<path transform="translate(1864,1204)" d="m0 0 3 1v27l-1 12-3 4h-693l-1-3 582-1h72l41 1z" fill="#817F7E"/>
<path transform="translate(1037,452)" d="m0 0h8l15 6 64 28 114 49 29 13 21 9 72 31 32 14 72 31 99 43 35 15 18 8 3 3-5-1-24-10-19-8-21-9-24-10-15-7-26-11-8-4-20-8-53-23-20-9-17-7-13-6-24-10-21-9-16-7-18-8-13-6-13-5-20-9-21-9-11-5-12-5-20-9-12-5-11-5-17-7-8-4-20-8-15-7-32-13-6-3-1-1-8 1-15 7-18 7-11 5-27 11-6 1 4-3 52-22z" fill="#817F7E"/>
<path transform="translate(603,773)" d="m0 0 1 3-2 9-1 20v111l-2 6-4 2h-19l-7-3-1-1-1-7 1-121 2-15 2-2 1 42v102l24 1-1-16v-47l1-69 1-4h2l1-6z" fill="#CBAB6D"/>
<path transform="translate(863,524)" d="m0 0 3 1-10 5-29 12-10 4-33 14-14 5-10 5-43 18-20 8-34 14-38 16-13 5-11 5-34 14-10 4-13 5-8 4-20 8-23 10-13 5-55 23-17 7-3-1 22-10 27-11 86-36 39-16 91-38 39-16 79-33 41-17z" fill="#817F7E"/>
<path transform="translate(1456,1202)" d="m0 0h118l287 1v1h-691v26l-1 15-2-4v-35l2-3z" fill="#817F7E"/>
<path transform="translate(1421,1292)" d="m0 0h10l15 2 3 2 1 5-2 9-7 11-5 4h-6l-6-5-6-10-2-5v-9z" fill="#F8F7F6"/>
<path transform="translate(1731,1292)" d="m0 0h12l12 2 2 1 1 9-4 11-9 10-7-1-6-5-4-8-1-4v-7l3-7z" fill="#F7F6F5"/>
<path transform="translate(1169,884)" d="m0 0 13 1 13 4 11 7 7 9 4 10v13l-4 9-8 7-3 1h-11l-5-3-3-4v-9l6-6h2l2-6-4-6-3-1h-8l-8 4-5 6-1-2 5-7 8-4 7-1 10 2 6 4v5l-8 11-3 3-1 6 3 3 7 2 1-5 5 1 1 2 5-5 3-9v-10l-3-10-9-10-14-7-4-1h-16l-12 3-16 8h-3l5-4 16-8zm26 30 1 2z" fill="#817F7E"/>
<path transform="translate(1614,832)" d="m0 0 2 1 1 4v259l-2 8-7 7-8 4-3-1 12-7 4-6 1-4z" fill="#817F7E"/>
<path transform="translate(698,767)" d="m0 0 4 1 3 13 2 7v92l-1 20h-8l-5-1h-16l-16 3-13 5-8 5-2-1 9-6 12-5 11-3 7-1h15l11 2v-98l-1-21-4-10z" fill="#82807D"/>
<path transform="translate(447,1290)" d="m0 0 2 1-14 28-9 12-11 8 1 1 5 11 1 5v74l-3 9-2 1 1-6 1-75-1-10-8-6-2-3-4 10-5 10-4 4h-2l9-18 5-12 1-1h11l8-7 7-11 8-15zm-40 46 1 2z" fill="#817F7E"/>
<path transform="translate(515,1345)" d="m0 0 6 2 3 3 3 11v59l-2 15-3 6-2-1v7l-11 1 2-3h2l3-10 2-11-10 1-7-2-5-7-2-9v-23l4-17h1l-1 11-1 9v19l3 12 5 3 11 1 4 2-1 12h2v-14l2-1 1-6v-53l-4-10-5-4-3-2z" fill="#817F7E"/>
<path transform="translate(1797,829)" d="m0 0 1 3-1 4-1 23v227l3 9 5 4 7 2 7-3 5-6 2-8v-8l-4-10-2-6 1-6 5-3 9 1 7 5 4 7-1 3-6-9-6-4h-9l-1 1 1 8 4 11v15l-4 8-6 5-5 2-7-1-6-4-4-5-1-4v-251l2-8z" fill="#817F7E"/>
<path transform="translate(615,1333)" d="m0 0h3l4 20 1 15 1 32v16l-3 9-4 4h-6l-3-3 5-1 4-12 1-20-1-42-2-10z" fill="#817F7E"/>
<path transform="translate(373,1030)" d="m0 0 2 1-8 5-16 4-9 1 5 5 11 7 8 3 10 2 14-1 13-2-2 5-7 15-1-3 5-12-12 1h-11l-4-1-6 1-5-1-1-2 1 4 3 5-1 4-5-8-5-6-12-4h-10l-12 4-4 3-2-1 8-7 9-3h10l1-1v-8l6-2 12-2 13-5z" fill="#817F7E"/>
<path transform="translate(733,774)" d="m0 0 2 4 1 6 1 124 7 1 21 1 6 2-1 3-3-2h-19l-9-2-5-3-1-2z" fill="#CBAB6D"/>
<path transform="translate(570,784)" d="m0 0h1v136l26 2-2 2h-19l-7-3-1-1-1-7 1-121 1-7z" fill="#817F7E"/>
<path transform="translate(598,1093)" d="m0 0 4 4-1 2 4 2 9 10 5 4 7 3v2l10 3 19 6 16 3 12 1v2l13-2 20-2 13-4h8l-2 2-14 4-22 3h-24l-20-2-15-4-19-9-10-8-7-7-6-10z" fill="#DDD4CA"/>
<path transform="translate(1595,1348)" d="m0 0 4 1-1 2-6 1-5 4-4 10-1 4v10l2 4v7l2 7 2 1h11l-2 2-10 3-2-1 4 8 8 7 10 3 13-2 8-7h4l-2 4-6 5-10 4h-10l-10-5-7-7-7-12-2-9v-21l4-12 6-8z" fill="#817F7E"/>
<path transform="translate(1444,777)" d="m0 0 2 3 2 5v98l-1 31-14-7-11-5-14-3-8-1h-22l-17 4-14 7-2-1 10-6 9-4 13-3h27l21 5 9 4 12 7v-111l-1-15z" fill="#8B8886"/>
<path transform="translate(1010,550)" d="m0 0h31l20 2 23 5 24 8 23 11 17 10 17 13 11 9 13 13 9 11 5 6-1 2-8-9-7-8-14-14-11-9-12-9-19-12-16-8-21-8-22-6-12-2-10-2-41-1z" fill="#817F7E"/>
<path transform="translate(869,1355)" d="m0 0 1 3-1 4v63l2 9 3 8v7l-3 2h-12l-22-1-4-2-1-4 5-17 4-23h1v11l-3 16-4 10 1 4 36 2-2-9-3-8-1-7v-60z" fill="#817F7E"/>
<path transform="translate(1096,1303)" d="m0 0 9 1 6 5 5 8-1 2-8-10-5-3h-7l-4 2-2 5-2 21 1 50 1 10 1-3 4-1 2-1-2 4-2 9 3 7 3 4-5-1-2-1 2 13 4 9-1 2-5-8-3-13-3-26v-64l1-12 4-6zm-7 102 1 2z" fill="#817F7E"/>
<path transform="translate(1501,1291)" d="m0 0h1l-1 14-2 12-1 5-1 83 1 17 4 13-1 3-3-7-2-7-1-14-1-39-1-2 1-54 3-16z" fill="#817F7E"/>
<path transform="translate(640,709)" d="m0 0h26l13 3 17 8 10 7 7 6 5 6-1 2-13-13-6-4-5-1-13-4v-2h-7l-9-3-9-1-27 1-12 5-9 5-4 3-2-1 11-8 11-5 11-3z" fill="#A39681"/>
<path transform="translate(1265,945)" d="m0 0v3l-12 12-14 8-15 5h-24l-18-6-10-6-6-7 1-2 4 2 4 5 12 6 22 3h8l16-3 17-6 12-11z" fill="#EEE3D9"/>
<path transform="translate(1667,834)" d="m0 0h1v250l2 11 5 4 3 1h8l6-4 4-8 2-11h1v9l-3 9-7 7-3 1h-10l-6-4-3-4-1-3v-256z" fill="#817F7E"/>
<path transform="translate(1273,986)" d="m0 0 4 1-22 5-7 2-9 1h-15l-29-6h-15l-13 5-13 8-14 5-8 2-1-4 5-3 11-1 17-8 8-4 6-2h21l26 3h23z" fill="#817F7E"/>
<path transform="translate(1563,934)" d="m0 0h1l-1 167-2-1-1-28 1-135z" fill="#BBB4AE"/>
<path transform="translate(281,1348)" d="m0 0h6l5 5 8 21v5l-5 4-2 1h-11l-3-2 13-2 5-1-3-13-6-14-4-1-5 1-2 6-4 13-1 13 3 1-1 7 2 6 8 2-3 2-6 1 2 7-3-3-5-12-1-11 3-19 5-12zm-9 47 1 2zm1 2 1 3z" fill="#817F7E"/>
<path transform="translate(1104,1115)" d="m0 0 5 1 14 6v2l4-1 7 3 24 6 14 2h16l20-3 9-3 14-2 3-2h5l-2 2-15 5-21 4-10 1h-28l-21-3-16-5-16-8-6-4z" fill="#E4DAD0"/>
<path transform="translate(240,859)" d="m0 0h33l18 4 16 7 18 10 8 5 15 7 8 5 6 9 3 10-1 9-2 5-1-3 1-4v-8l-3-9-6-8-10-6-10-3-18-12-16-8-13-5-8-2-9-1h-24l-17 3-17 6-7 4-4-1 15-7 15-5z" fill="#848180"/>
<path transform="translate(1218,1352)" d="m0 0 2 1 1 5v65l-3 16-3 3-1 5h-6l-8 4-3 1h-9l-7-3 3-1 2 1h12l8-4 4-7 2-12 2 4 2 7 2-31z" fill="#817F7E"/>
<path transform="translate(1512,1308)" d="m0 0 4 5 3 10v78l-1 23-4 19v4h-7l-3-3-1-4 2-4 3 1 2 6 2 1v-8l3-18 2-41v-47l-2-12-5-5-1-2h3z" fill="#817F7E"/>
<path transform="translate(1351,762)" d="m0 0 1 2-6 12-3 12-1 7v114l3 1-5 2-1-1v-101l1-22 3-12 6-12z" fill="#817F7E"/>
<path transform="translate(141,1291)" d="m0 0 2 2 4 13v42l-1 40-1 23-3 19-1 5h-1l1-11 1-7 1-58 1-29v-26l-3-10z" fill="#817F7E"/>
<path transform="translate(802,742)" d="m0 0h1v8l-3 5h-9v17l7 1 1 1 1 10 4 7-9-1-5-3-2-3 1-7-2-5v-15l2-6 9-1h3z" fill="#817F7E"/>
<path transform="translate(982,553)" d="m0 0h7l-2 2-17 3-23 7-22 9-19 11-17 12-14 12-12 11-9 10-4 3 2-4 12-13 11-11 11-9 11-8 21-13 23-11 22-7 12-3z" fill="#817F7E"/>
<path transform="translate(680,940)" d="m0 0h14l2 2h-14l-9 4-5 6-1 3v11l5 5 10 5 26 10 25 10 10 5-2 1-29-11-17-6-18-7-8-4-5-6v-13l3-6 5-5z" fill="#817F7E"/>
<path transform="translate(622 1e3)" d="m0 0h4l8 8 5 2v2l5 1v2h6l33 11 14 5 6 3v2l5 1 5 3-2 1-14-6-16-5-35-12-13-7-10-9z" fill="#EFE4D9"/>
<path transform="translate(1547,1295)" d="m0 0 1 3-2 10-1 21v76l1 18 2 9 3 6-1 2-5-10-2-10-1-28v-81l3-12z" fill="#817F7E"/>
<path transform="translate(1117,624)" d="m0 0 5 2 11 8 10 8 15 15 13 17 10 17 8 17 7 21 4 17v6l-2 2-9 1-3 5-6 1v-2l5-1 3-5 9-1-1-13-7-25-8-18-7-12-5-9-11-14-9-10-9-8v-2l-4-2-13-10-6-4z" fill="#E4CEB0"/>
<path transform="translate(1483,1296)" d="m0 0 2 1-9 6-10 5 4 11 1 4v61l-1 47-5 14h-1l1-9 2-12 2-41v-53l-3-12-4-7 1-4 10-6z" fill="#817F7E"/>
<path transform="translate(1381,709)" d="m0 0h26l16 4 16 8 11 8 11 12 2 5-6-3-4-6-3-5-12-9-12-6-11-4-11-1h-23l-11 2-16 6-4 4-8 5-5 5-2-1 8-8 14-9 14-5z" fill="#817F7E"/>
<path transform="translate(1194,857)" d="m0 0 11 1 18 5 13 4h7l10-5h9l7 6 8 15 2 6 1 16v8l-3 14-6 12-1-2 5-12 2-9v-20l-3-14-7-13-6-5h-6l-12 6h-10l-20-7-19-5z" fill="#817F7E"/>
<path transform="translate(656,1335)" d="m0 0h8l4 8 5 8 3 11v65l-2 9-5 9-1-3 2-8 3-10v-63l-4-12-9-10z" fill="#817F7E"/>
<path transform="translate(653,1064)" d="m0 0h9l9 4 7 5 6 1-2 2-6-1-10-6-7-2h-7l-5 4-3 8 1 8 6 8 9 7 8 3 6 1h23l7-1-1 2-10 2h-18l-10-2-12-6-9-9-3-7v-8l4-8z" fill="#82807F"/>
<path transform="translate(869,1055)" d="m0 0 17 1 47 1v2h2l2 8-1 4-4-10-63-1-5 10-1-3 4-11z" fill="#F3E8DD"/>
<path transform="translate(779,1345)" d="m0 0 7 2 4 8 1 3v68l-2 10-3 6h-1l1-16 2-20v-50l-3-6-3-2h-8l2-2z" fill="#817F7E"/>
<path transform="translate(704,777)" d="m0 0 2 3 3 14v96l-1 9-2 1v-112l-2-7z" fill="#CBAB6D"/>
<path transform="translate(211,947)" d="m0 0 1 2-8 15-4 13-2 14v21l4 17 8 17 9 13 2 4-6-5-10-15-7-17-3-12-1-14 1-14 4-15 5-12 6-11z" fill="#817F7E"/>
<path transform="translate(1426,1332)" d="m0 0h17l8 1 1 3-5 28-1 8v25l3 34 2 8-1 4-3-6-2-8-1-24v-34l3-24 3-12-36-1v-1z" fill="#817F7E"/>
<path transform="translate(1384,738)" d="m0 0 2 1h11l11 2 15 6 10 8 5 5 5 9 1 8-2-3-6-11-7-8-11-7-13-4h-22l-11 2v-2h4l2-4z" fill="#AE9C79"/>
<path transform="translate(1340,1347)" d="m0 0 3 3 3 9 1 28v28l-1 16-3 8-2 1 2-20 1-32-2-32z" fill="#817F7E"/>
<path transform="translate(554,1347)" d="m0 0h1v10l-1 14-1 32 2 32-2-2-2-5-1-10v-42l2-20z" fill="#817F7E"/>
<path transform="translate(733,774)" d="m0 0 2 4 1 6 1 124 7 1 21 1 6 2-1 3-3-2h-19l-9-2-4-2-1-120z" fill="#817F7E"/>
<path transform="translate(1735,798)" d="m0 0h16l10 4 7 4 9-3 11-4 5-1 14 1 9 4-3 1-9-2h-15l-15 5-3 2-5-1-12-6-6-1h-12l-13 5-3 5-2 2v-5l7-6z" fill="#817F7E"/>
<path transform="translate(571,775)" d="m0 0h1l1 42v102l5 1v1h-7l-1-1v-135l-1-2z" fill="#C8A96E"/>
<path transform="translate(905,967)" d="m0 0 3 3 8 27 6 19 5 16 1 3-9-2-25-7-15-5 1-5 2-2 1 5 25 8 15 5-2-10-9-30-6-18v-2h-2z" fill="#817F7E"/>
<path transform="translate(1725,1332)" d="m0 0h35l1 1-1 10-2 11-2 22-1 44h-1l-1-20v-20l2-26 3-16v-3l-37-1z" fill="#817F7E"/>
<path transform="translate(1109,931)" d="m0 0 1 3-5 15-3 17v36l3 18 8 24-3-3-6-15-4-16-2-16v-11l2-25 5-17z" fill="#817F7E"/>
<path transform="translate(1608,798)" d="m0 0h15l12 5 3 2h7l12-5 9-2h9l9 3 3 3-13-3h-9l-13 4-12 4-15-7-4-1h-12l-11 3-4 2-3 8h-1v-6l4-5 9-4z" fill="#817F7E"/>
<path transform="translate(1049,1292)" d="m0 0 2 3 5 11v123l-2 7-4 6-2-1 5-12 1-6v-97l-2-22-3-8z" fill="#817F7E"/>
<path transform="translate(1825,1423)" d="m0 0 3 1 1 8h2l-2 9-3 5h-3l-10 5-4 1h-9l-8-3-1-2 7 2h11l7-3 4-4 3-9v-9z" fill="#817F7E"/>
<path transform="translate(891,656)" d="m0 0v3l-10 13-8 12-7 14-6 13-7 22-3 13v6l13 1 2 6 2 1-4-1-2-4-11-1-2-2v-7l7-27 10-25 10-17 10-13z" fill="#E4CEB0"/>
<path transform="translate(932,1343)" d="m0 0 4 4 3 7v70l-2 13-4 6-1-3 3-9 1-5 1-65-2-9-3-6z" fill="#817F7E"/>
<path transform="translate(850,1100)" d="m0 0 1 3-4 10v5l8 3 11 3 2 2-1 4-16 5-5 1h-10l4-2 17-2-1-2h-3v-2h3l-3-4-6-2v-2h-4l1-7z" fill="#E5DBD2"/>
<path transform="translate(1381,711)" d="m0 0h23l11 1 18 7 12 8v3l-3-1-1-2-4-2v-2l-9-2-6-3-17-3v-1h-30l-13 4-3-1 14-5z" fill="#D0B37C"/>
<path transform="translate(1464,921)" d="m0 0h11l-4 4-5 1-1-2-4-1 4 7 6 10 5 15 1 5v13l-3 20-2 7h-1l1-11 2-14v-13l-2-12-4-9-4-8-8-10v-1z" fill="#817F7E"/>
<path transform="translate(328,1402)" d="m0 0h2l3 17 6 1 3 3-2 1-2 6 2 7 5 5 2 3-5-2-6-7-7-14-2-10v-7z" fill="#817F7E"/>
<path transform="translate(1505,898)" d="m0 0h11l10 2 10 6 5-2 12-5 10-1 14 2 6 3v1h-5v-2l-10-1h-14l-12 6-4 3-18-9h-17l-13 4-3 2 2-4 6-4z" fill="#838180"/>
<path transform="translate(603,773)" d="m0 0 1 3-2 9-1 20v111l-1 5h-1l-1-76 1-61z" fill="#817F7E"/>
<path transform="translate(1251,1334)" d="m0 0h1l-1 11-3 18-1 17v35l1 13 4 10v5l-2-3-4-8-1-4v-70l3-14z" fill="#817F7E"/>
<path transform="translate(454,1439)" d="m0 0 2 2 1 7-4 3h-37l-2-1 1-6 2 2h3 12l22 1z" fill="#F3E8DD"/>
<path transform="translate(967,1286)" d="m0 0 5 1-1 13-6 30h-1v-9l7-32-6 2-8 17-6 12-8 10-3 3-2-1 9-10 14-30 4-5z" fill="#817F7E"/>
<path transform="translate(355,1349)" d="m0 0h7l25 11 5 3-2 1-13-6-14-5h-8l-2 3 1 6 5 6 18 11 12 7 5 5-5-2-24-14-9-6-4-5-1-3v-7z" fill="#817F7E"/>
<path transform="translate(1153,855)" d="m0 0h35l6 1v1h-31l-12 1-17 4-17 7-15 9-7 6-2-1 9-8 15-9 13-6 17-4z" fill="#817F7E"/>
<path transform="translate(1651,1352)" d="m0 0 2 2 3 14 1 12v17l-2 30-5 16v4l12 1-3 2h-11l-1-5 4-13 2-10 1-14v-33l-2-16z" fill="#817F7E"/>
<path transform="translate(1862,1334)" d="m0 0h2l-1 10-3 14-2 22v42l2 9 4 9-1 3-6-12-2-13v-22l1-25 3-20z" fill="#82807E"/>
<path transform="translate(339,1345)" d="m0 0 1 3-3 12v10l2 8 5 10 7 8-1 2-12-12-3-5v-2h-2l1 5-2 1-1-7 3-21z" fill="#817F7E"/>
<path transform="translate(430,1101)" d="m0 0 1 3-3 7-1 7 20 6v4l-4 3-12 4-6 1h-9v-1l18-3 4-1-3-5v-4l-9-1-3-2 1-5z" fill="#CDC5BD"/>
<path transform="translate(1364,1056)" d="m0 0 9 2 16 8 7 5-2 1-16-9-13-5v29l4 8 13 7-4 1-10-5-4-5-2-5v-29z" fill="#817F7E"/>
<path transform="translate(1826,1347)" d="m0 0 3 1 3 6 1 9v60l-1 6h-1l-1-5v-68z" fill="#817F7E"/>
<path transform="translate(1145,1293)" d="m0 0 3 3 6 13 3 14v32l-3 16-5 13-6 11-3 2 2-5 7-15 5-18 1-10v-23l-3-14-6-15z" fill="#817F7E"/>
<path transform="translate(968,1351)" d="m0 0 4 1-7 4v49l2 25-2-2-3-19v-53l1-4z" fill="#817F7E"/>
<path transform="translate(1265,945)" d="m0 0v3l-12 12-14 8-15 5h-24l-10-3v-1l8 1h20l14-3 13-5 11-8z" fill="#85827F"/>
<path transform="translate(729,1127)" d="m0 0h8l-2 2-14 4-22 3h-24l-11-1 3-1v-2l16 1v2l13-2 20-2z" fill="#F0E5D9"/>
<path transform="translate(1311,781)" d="m0 0h1v119l-15 2-5 3 2-4 3-2 13-2z" fill="#817F7E"/>
<path transform="translate(1565,1106)" d="m0 0 15 8 10 4 2 1v9h2l4 5-5-2h-2l-13 6-16 2-6-2 2-1h14l10-3 5-5v-7l-6-4-10-4-6-5z" fill="#817F7E"/>
<path transform="translate(1232,693)" d="m0 0 2 2 8 24 5 24 1 6 9 3 1 2-10 1-3-2-3-20-4-18-6-19z" fill="#817F7E"/>
<path transform="translate(1184,760)" d="m0 0 4 1 1 11h5l2 2v9l-5 2v-2l-4 2-4-24z" fill="#817F7E"/>
<path transform="translate(841,1404)" d="m0 0h1v11l-3 16-4 10 1 4 36 2 1-4v5l-10 1h-29l-2-5 5-17z" fill="#F1E6DB"/>
<path transform="translate(1728,1362)" d="m0 0h1l1 8v36l-2 17-8 24h-1l1-8 5-14 1-5 1-15z" fill="#817F7E"/>
<path transform="translate(651,1345)" d="m0 0 1 4-2 23v35l1 15-2-4-2-14-1-23 1-17z" fill="#817F7E"/>
<path transform="translate(277,1410)" d="m0 0 12 9 8 2h11l9-6 5-5 4 1v3l-5 2-8 6-8 3h-8l-10-3-5-4-5-6z" fill="#817F7E"/>
<path transform="translate(1299,1361)" d="m0 0h6l-4 2-2 5v19l1 37 2 11 2 4-5-5-2-9-1-57z" fill="#817F7E"/>
<path transform="translate(527,1120)" d="m0 0h10l7 3 5 3 8 3h6l5 1h29l4 2-6 1h-23l-16-2-10-4-7-4-7-1-4 1h-14v-1z" fill="#817F7E"/>
<path transform="translate(971,1439)" d="m0 0h1l1 8-3 3-38 1-2-3 1-5 1 3 4 1 5-1 21 1 9 1z" fill="#C3BCB5"/>
<path transform="translate(1195,1361)" d="m0 0 1 3-5 23-1 12 3 15 4 6 2 1 9 1 2 2h-11l-6-4-3-5-2-10v-15l3-18z" fill="#817F7E"/>
<path transform="translate(529,898)" d="m0 0 8 1v1l-17 3-24 7-13 1-11-4-11-6 3-1 15 7 9 1 16-3 20-6z" fill="#817F7E"/>
<path transform="translate(575,1332)" d="m0 0h15l-3 2h-17l4 10 4 14 1 8v17h-1l-3-26-3-11-8-10v-3z" fill="#817F7E"/>
<path transform="translate(864,898)" d="m0 0h14l9 3 12 6 6 2-4 1-5-1-14-8-11-1-14 2-12 5-10 7-3 3-2 3 1-5 5-5 10-7 11-4z" fill="#817F7E"/>
<path transform="translate(836,1332)" d="m0 0h11v1l-12 1 1 7 4 12 2 13 1 22v13h-1l-5-47-5-17v-3z" fill="#817F7E"/>
<path transform="translate(215,1131)" d="m0 0h8l9 2 18 2 2 1v2l26-3h5l-4 2-14 2h-20l-23-5-7-2z" fill="#B9B2AB"/>
<path transform="translate(457,1350)" d="m0 0 2 1-1 1-10 1v31l1 28 2 19-2-3-3-16-1-60 1-1z" fill="#817F7E"/>
<path transform="translate(1630,1354)" d="m0 0 2 3 6 15 2 10-1 5-19 6-18 6h-3v-2l20-6 15-6 2-2v-7l-6-18z" fill="#817F7E"/>
<path transform="translate(572,1098)" d="m0 0 3 4 5 10 8 7 4 2 16 4 2 2-6 4h-3v-3l-4-2-10-4-10-9-4-9z" fill="#817F7E"/>
<path transform="translate(221,1063)" d="m0 0 7 6 16 12 12 7 17 5h15l-2 2-3 1h-8l-17-4-15-8-10-8-12-11z" fill="#817F7E"/>
<path transform="translate(577,1386)" d="m0 0h1v13l-3 19-1 5v11l10 7 11 7 1 2-5-2-17-11-4-4v-8l5-23z" fill="#817F7E"/>
<path transform="translate(961,894)" d="m0 0 8 1 4 4-1 3-4-5h-8l-8 2-26 8-11 3h-7l-3-2 17-3 26-8 6-2z" fill="#817F7E"/>
<path transform="translate(964,916)" d="m0 0v3l-4 5-3 6 1 14 8 35-1 4-11-41-1-7 2-8 5-8z" fill="#817F7E"/>
<path transform="translate(1047,1442)" d="m0 0 5 3 4 3h28l9 2 9 1-4 2-15-3h-20l-7 1h-11l-1-4z" fill="#B6B1AB"/>
<path transform="translate(1404,1334)" d="m0 0h8l2 10 4 10 1 4v7h-1l-5-17-4-9v-2l-4 4-6 18h-1l1-7 2-10z" fill="#848281"/>
<path transform="translate(1475,1176)" d="m0 0h8l2 3 4 1 2-1 16 3 20 1-4 2h-22l-14-3-12-5z" fill="#BDB6AE"/>
<path transform="translate(383,1096)" d="m0 0 1 3-3 3-11 2-14 7-5 4h-2l-1-8 13-3 9-3 10-3z" fill="#817F7E"/>
<path transform="translate(868,1057)" d="m0 0 17 1h48l2 1 2 8-1 4-4-10-63-1-5 10-1-3z" fill="#817F7E"/>
<path transform="translate(633,1031)" d="m0 0h18l14 5 11 8 6 7-1 2-8-9-10-6-13-4h-21l-9 3-3-1 11-4z" fill="#817F7E"/>
<path transform="translate(307,934)" d="m0 0 5 2 1 4h3v2l10 3 6 1 10-1 9-4 4-4 2 1-8 7-7 3-11 1-10-2-7-4-7-8z" fill="#E0D6CB"/>
<path transform="translate(766,1358)" d="m0 0 1 3-3 9-2 15v27l2 8-3-2-2-7v-30l4-16z" fill="#817F7E"/>
<path transform="translate(1265,1440)" d="m0 0h1l2 6 33 1 6 2v1h-41l-4-2 2-5z" fill="#868482"/>
<path transform="translate(1419,999)" d="m0 0 1 2-6 10-8 8-12 6-7 2h-11l-11-3-2-3 14 3h11l11-4 9-6 7-8z" fill="#817F7E"/>
<path transform="translate(461,1016)" d="m0 0 9 4 26 8 6 1-1-9 2 3 2 6-1 4-21-6-20-6-3-3z" fill="#817F7E"/>
<path transform="translate(179,1305)" d="m0 0 1 2-2 4-1 7-2 32-1 30-3-1 2-31 1-24 1-11z" fill="#817F7E"/>
<path transform="translate(1447,1295)" d="m0 0 2 1 1 5-2 9-7 11-5 4h-6l-6-5 1-2 4 3 6-1 7-6 5-11z" fill="#827F7E"/>
<path transform="translate(249,1378)" d="m0 0h1v19l2 15 5 14 7 10 5 6-4-2-8-9-6-12-3-18v-17z" fill="#817F7E"/>
<path transform="translate(1721,1448)" d="m0 0h39v2l-2 1h-35l-2-1z" fill="#817F7E"/>
<path transform="translate(1584,1445)" d="m0 0h12l2 1 19 2-3 2-9 2-13-2-8-4z" fill="#EDE3D8"/>
<path transform="translate(448,1056)" d="m0 0 16 2 51 1-1 3-1-1-64-1-5 11-1-3z" fill="#817F7E"/>
<path transform="translate(348,1120)" d="m0 0h18l15 4 10 4-3 1-16-4-5-1-20-1-1-2z" fill="#817F7E"/>
<path transform="translate(1537,1127)" d="m0 0 11 5 4 1 18 1v2l2 1h-20l-14-5-2-4z" fill="#EEE3D8"/>
<path transform="translate(598,1093)" d="m0 0 4 4-1 2 4 2 9 10 5 4 4 4 6 4-2 1-10-6-10-9-7-9-2-4z" fill="#D8CFC6"/>
<path transform="translate(212,1385)" d="m0 0 2 2 7 16 11 20 10 11h-3l-5-4-10-15-7-14-5-13z" fill="#817F7E"/>
<path transform="translate(1160,995)" d="m0 0m-2 1h2l-1 3-10 5-14 4h-4l1-4 4-2 11-1z" fill="#858381"/>
<path transform="translate(336,1108)" d="m0 0h6l-2 2-10 4-15 10-18 8-6 2-4-1 16-6 17-9 3-1v-2z" fill="#817F7E"/>
<path transform="translate(1813,1133)" d="m0 0h30l2 1v2h-34v-2z" fill="#CBC3BC"/>
<path transform="translate(858,923)" d="m0 0 4 1 5 10 1 3v10l-6 16-7 16-2 1 3-9 8-19 1-4v-13l-4-8z" fill="#82807E"/>
<path transform="translate(1339,1443)" d="m0 0 1 2-1 3 4-1v2l5-2h26l8 1-1 2h-12l-18-1-3 1h-10l-2-3z" fill="#82807E"/>
<path transform="translate(1756,1304)" d="m0 0 1 4-5 10-7 7-7-1-6-5-4-8 1-4 5 10 4 4 7-1 5-4z" fill="#817F7E"/>
<path transform="translate(862,772)" d="m0 0 1 4-4 8-4 5-5 2 4-6v-11z" fill="#858280"/>
<path transform="translate(770,1120)" d="m0 0h17l9 2 11 4 4 3-5-1-20-5h-20v-2z" fill="#817F7E"/>
<path transform="translate(140,1447)" d="m0 0h29l18 4-2 2-12-2-8-1h-21l-4-2z" fill="#848281"/>
<path transform="translate(1409,1445)" d="m0 0 1 2h35l6 1-3 3-6-1-33-1z" fill="#817F7E"/>
<path transform="translate(1259,772)" d="m0 0 1 2-2 10-4 5-5 2 3-5-1-10 1-2z" fill="#82807F"/>
<path transform="translate(1381,709)" d="m0 0m-6 1h6v2l-11 2-16 6-4 4-8 5-5 5-2-1 8-8 14-9 14-5z" fill="#817F7E"/>
<path transform="translate(1122,1333)" d="m0 0 2 3 3 16v28l-4 11-1-4 3-17v-11l-3-22z" fill="#817F7E"/>
<path transform="translate(292,1130)" d="m0 0 4 1-9 2v2l-26 3h-9v-2l2-1 22-1 5-2z" fill="#F2E6DA"/>
<path transform="translate(661,1022)" d="m0 0 10 2 30 10 12 6-2 1-14-6-16-5-20-7z" fill="#817F7E"/>
<path transform="translate(1134,1009)" d="m0 0 19 4 17 1 8-2h7l-3 2-10 2h-19l-14-3-5-3z" fill="#D9D0C7"/>
<path transform="translate(1711,1333)" d="m0 0h7l-3 9-4 9-2 9-3 2 4-20z" fill="#817F7E"/>
<path transform="translate(817,1130)" d="m0 0h7l9 2h20v1l-17 3-10-1-10-3z" fill="#ECE1D7"/>
<path transform="translate(1295,1119)" d="m0 0 13 1h20l-2 2-10 2h-11l-9-3z" fill="#C6BFB8"/>
<path transform="translate(820,1055)" d="m0 0h2l-3 9-11 25-2 5-1-3 6-15 8-19-6 2h-8v-1z" fill="#817F7E"/>
<path transform="translate(1684,1133)" d="m0 0h25v2l3 1h-35v-1z" fill="#BCB6AF"/>
<path transform="translate(414,1448)" d="m0 0h22l19 1-2 2h-37l-2-1z" fill="#817F7E"/>
<path transform="translate(171,1384)" d="m0 0h5l7 11 1 4-3-3-4-7-2-1v17l1 12-2-4-2-13z" fill="#817F7E"/>
<path transform="translate(1109,1384)" d="m0 0 4 2 3 4 1 6 2 1-2 2-4-1-4-5z" fill="#817F7E"/>
<path transform="translate(1683,1361)" d="m0 0h6l-4 2-2 3-1 9-1 47h-1v-56z" fill="#817F7E"/>
<path transform="translate(919,1437)" d="m0 0 4 4 3 6-1 2h-2v2l-3 1h-8l-11-1-10-1-1-2 20 1 9 1 2-1-1-8z" fill="#817F7E"/>
<path transform="translate(1664,1331)" d="m0 0h7l5 3 2 4 4 3-2 3-4-1-2-9h-27v-1z" fill="#817F7E"/>
<path transform="translate(1234,1124)" d="m0 0h5l-2 2-15 5-15 3h-3v-2l13-4 14-2z" fill="#CBC3BC"/>
<path transform="translate(622 1e3)" d="m0 0h4l8 8 5 2v2l5 1v2l4 1v2l-6-2-12-7-8-8z" fill="#D5CCC4"/>
<path transform="translate(653,1064)" d="m0 0h9l9 4 7 5 6 1-2 2-6-1-10-6-7-2h-9z" fill="#817F7E"/>
<path transform="translate(841,1404)" d="m0 0h1v11l-3 16-4 10-1 7-2-4 5-17z" fill="#817F7E"/>
<path transform="translate(1328,1334)" d="m0 0h7l-1 5-6 9-2 6h-1l1-10z" fill="#817F7E"/>
<path transform="translate(1058,1144)" d="m0 0h8l-4 2-13 4-6 4-6 9-3 7h-2l2-6 5-9 8-7z" fill="#B9B2AC"/>
<path transform="translate(181,885)" d="m0 0 2 1-9 10-9 9-4 2 2-4 11-12z" fill="#B3AFAD"/>
<path transform="translate(698,941)" d="m0 0 9 6 6 7 8 15-1 2-4-5-7-13-3-3v-2l-10-5z" fill="#817F7E"/>
<path transform="translate(562,1129)" d="m0 0 7 1h28l4 2-6 1h-23l-11-1-1-2z" fill="#BDB6B0"/>
<path transform="translate(1438,721)" d="m0 0 7 4 10 9 8 10-1 2-5-3-4-6-3-5-12-9z" fill="#817F7E"/>
<path transform="translate(781,1056)" d="m0 0h7l7 2 9 1v1h-20l-3 15h-1z" fill="#817F7E"/>
<path transform="translate(835,913)" d="m0 0 1 2h2v2h-3v2l6-1 15 1 5 4-8-1-3-1-19-1 1-4z" fill="#F2E7DC"/>
<path transform="translate(493,1447)" d="m0 0h6l3 1h7l-3 3-4 1h-7l-8-3v-1z" fill="#BBB4AE"/>
<path transform="translate(615,1442)" d="m0 0 9 1 10 2v2l6-1 4 2 1 2 3 2-8-1-21-7z" fill="#AEA8A3"/>
<path transform="translate(430,1101)" d="m0 0 1 3-3 7-1 7 10 3 4 2-10-1-7-2-1-4z" fill="#817F7E"/>
<path transform="translate(1384,738)" d="m0 0 2 1h11l4 2-14 1-9 1v2l-6 1v-2h4l2-4z" fill="#C9AA6F"/>
<path transform="translate(1505,898)" d="m0 0h11l4 2-17 1-13 4-3 2 2-4 6-4z" fill="#817F7E"/>
<path transform="translate(781,1105)" d="m0 0 3 1-11 7-8 7-3-1 1-3 6-2 2-5z" fill="#817F7E"/>
<path transform="translate(1378,1333)" d="m0 0 20 1v1l-8 1-11-1-4 2-4 8h-2l-2-6z" fill="#817F7E"/>
<path transform="translate(766,930)" d="m0 0v3l-13 12-11 14-1-2 8-11 15-15z" fill="#817F7E"/>
<path transform="translate(514,1111)" d="m0 0 2 1-1 4 4 1 2 2 6 1v1l-6 1h-8l-1-1v-6z" fill="#D9D0C7"/>
<path transform="translate(839,1008)" d="m0 0 1 3-3 5-2 1h-14l-2-2 17-3z" fill="#CAC2BB"/>
<path transform="translate(371,1415)" d="m0 0h2l2 6-1 7-4 5-6 2 6-9 1-3z" fill="#82807F"/>
<path transform="translate(1265,945)" d="m0 0v3l-12 12-14 8-3-1 4-3 10-5 12-11z" fill="#817F7E"/>
<path transform="translate(1653,1427)" d="m0 0 1 4-4 12v4l12 1-3 2h-11l-1-5 5-17z" fill="#817F7E"/>
<path transform="translate(1505,1436)" d="m0 0 3 1 2 6h3l1 4h-7l-3-3-1-4z" fill="#82807F"/>
<path transform="translate(649,710)" d="m0 0 10 1 5 1v1h-32v-1z" fill="#CBAB6D"/>
<path transform="translate(651,1423)" d="m0 0 2 3 4 10 2 3 1 10-7 2 4-5-1-6-3-5-2-7z" fill="#817F7E"/>
<path transform="translate(653,738)" d="m0 0 13 2v2l5 1v1l-24-2 3-3z" fill="#AD9A77"/>
<path transform="translate(1412,1334)" d="m0 0h36l2 2h-9l-10 1-3-1-16-1z" fill="#F3E8DD"/>
<path transform="translate(918,1010)" d="m0 0h2l7 22 1 3-9-2 1-2 3 1-2-10-3-9z" fill="#817F7E"/>
<path transform="translate(1174,1443)" d="m0 0 4 1 10 3 13 1-3 2h-12l-9-3z" fill="#E1D6CB"/>
<path transform="translate(866,1125)" d="m0 0 2 1-1 4-16 5-5 1h-10l4-2 17-3 8-3z" fill="#817F7E"/>
<path transform="translate(1113,1044)" d="m0 0 4 4 7 9 12 12-5-2-9-8-8-11z" fill="#817F7E"/>
<path transform="translate(435,900)" d="m0 0h5l-3 2-12 5-9 7-3 2 2-5 10-7z" fill="#817F7E"/>
<path transform="translate(672,744)" d="m0 0 6 1 8 5v2l5 2 5 8-1 2-6-8-11-8-6-3z" fill="#C6AD7E"/>
<path transform="translate(328,1382)" d="m0 0 2 4-7 3-19 6-3-1 22-8 4-1z" fill="#817F7E"/>
<path transform="translate(521,1084)" d="m0 0 2 2 3 13v5l-8 7-2-1 4-4h2l1-7-2-11z" fill="#83817F"/>
<path transform="translate(880,1021)" d="m0 0 27 8v1h-7l-16-5-4-2z" fill="#F3E8DD"/>
<path transform="translate(1166,952)" d="m0 0 5 2 4 5 6 4 1 3-6-2-8-7z" fill="#BEB7B1"/>
<path transform="translate(745,1444)" d="m0 0 4 2 7 3h11l7-1-3 3-3 1h-10l-10-4z" fill="#817F7E"/>
<path transform="translate(457,1350)" d="m0 0 2 1-1 1-10 1-1 31h-1l-1-32 1-1z" fill="#95918E"/>
<path transform="translate(393,1128)" d="m0 0 6 2 3-1 3 3 10 2v2l-10-1-14-5z" fill="#D3CBC2"/>
<path transform="translate(1053,1042)" d="m0 0h2l2 11h2l4 10v5l-3-4-7-19z" fill="#AFAAA5"/>
<path transform="translate(781,1055)" d="m0 0h9l6 1h20v1l-11 2h-10l-7-2-7-1z" fill="#F3E8DD"/>
<path transform="translate(1472,1115)" d="m0 0h1l3 12 5 8 6 5-1 3-4-3v-2h-2l-6-10-2-6z" fill="#817F7E"/>
<path transform="translate(1463,746)" d="m0 0 3 3 5 10-1 3-5-5-3-7h2z" fill="#B19D78"/>
<path transform="translate(589,1123)" d="m0 0 6 1 6 4v3h-7l-4-6z" fill="#F3E8DD"/>
<path transform="translate(604,1104)" d="m0 0 7 6 6 5 12 8-2 1-10-6-10-9-3-3z" fill="#817F7E"/>
<path transform="translate(454,1439)" d="m0 0 2 2 1 7-1 1h-20v-2h18z" fill="#DFD6CD"/>
<path transform="translate(667,1132)" d="m0 0 16 1v3l-19-1 3-1z" fill="#EBE1D6"/>
<path transform="translate(450,898)" d="m0 0 11 1v2h-21v-2z" fill="#CEC6BE"/>
<path transform="translate(449,1289)" d="m0 0h6l1 4-3 12h-1v-6h-1v-7l1-2z" fill="#D2CAC2"/>
<path transform="translate(1200,1132)" d="m0 0h4v2l-13 2h-18v-1l8-1 13-1z" fill="#F3E8DD"/>
<path transform="translate(850,1100)" d="m0 0 1 3-4 10v5l4 3-8-1 1-7z" fill="#817F7E"/>
<path transform="translate(729,1127)" d="m0 0h8l-2 2-14 4h-3l1-3z" fill="#D2C9C1"/>
<path transform="translate(1092,884)" d="m0 0 3 1-13 13h-2v2l-2-1 7-8z" fill="#C8C4C1"/>
<path transform="translate(697,722)" d="m0 0 5 2 10 8 6 7-1 2-13-13-7-5z" fill="#817F7E"/>
<path transform="translate(351,1447)" d="m0 0 16 1v2l5 1v1h-8l-13-4z" fill="#BAB2AA"/>
<path transform="translate(710,1444)" d="m0 0h2l1 4-3 2h-9l-4-2 1-1h12z" fill="#C9C1BA"/>
<path transform="translate(804,1094)" d="m0 0 1 3-3 5h-3v2l-15 1 2-2 14-3z" fill="#ADA7A2"/>
<path transform="translate(1086,1100)" d="m0 0 4 2 8 6 6 5v2l-5-2-12-11z" fill="#EDE3D8"/>
<path transform="translate(1150,758)" d="m0 0h13l10 1v1l-15 1-10-1z" fill="#E4CEB0"/>
<path transform="translate(1401,740)" d="m0 0 7 1 12 5v2l-10-3-5-1v-2h-4z" fill="#BFA678"/>
<path transform="translate(1417,1295)" d="m0 0h1l2 13 4 8-1 2-5-8-2-5v-9z" fill="#817F7E"/>
<path transform="translate(304,1076)" d="m0 0 1 4-3 5-6 5h-2v2l-6 1 5-4 8-7z" fill="#8C8987"/>
<path transform="translate(1543,1136)" d="m0 0 5 5 1 6v11l-2 3v-11l-3-10z" fill="#898685"/>
<path transform="translate(1818,1346)" d="m0 0h8v1l-9 2-6 7-3 5-1-2 4-8 5-4z" fill="#817F7E"/>
<path transform="translate(1688,1439)" d="m0 0 3 3 1 6-2 2h-7l-2-2h5v-2l3-1z" fill="#C7BFB7"/>
<path transform="translate(700,1336)" d="m0 0 4 1-2 5-4 2-2-2v-3z" fill="#817F7E"/>
<path transform="translate(1537,1127)" d="m0 0 10 5 3 3-7-1-6-3z" fill="#817F7E"/>
<path transform="translate(1311,1090)" d="m0 0 1 2-4 6-10 5-3-1 13-8z" fill="#817F7E"/>
<path transform="translate(1619,1391)" d="m0 0 1 2-18 6h-3v-2z" fill="#96928F"/>
<path transform="translate(984,1187)" d="m0 0 5 2 7 7-1 3-9-8z" fill="#BEB7B0"/>
<path transform="translate(1475,1176)" d="m0 0h8l2 3 10 3v1l-8-1-12-5z" fill="#A8A39E"/>
<path transform="translate(947,562)" d="m0 0m-3 1h3v2l-15 6h-2v-2z" fill="#848180"/>
<path transform="translate(999,1201)" d="m0 0 5 1 7 5 5 1 1 3-7-2-11-7z" fill="#F0E5DB"/>
<path transform="translate(1596,1448)" d="m0 0h7l8 1 3 1-9 2-9-1z" fill="#BCB0A2"/>
<path transform="translate(292,1130)" d="m0 0 4 1-9 2v2h-9l3-3z" fill="#E9DFD4"/>
<path transform="translate(347,1115)" d="m0 0 2 1-2 3 8-1 11 1v1l-11 1h-10z" fill="#DFD6CC"/>
<path transform="translate(1057,552)" d="m0 0 10 1 5 1v2h-9l-6-2z" fill="#848280"/>
<path transform="translate(967,1289)" d="m0 0h4l-1 8-1 5h-1l-1-10-2-2z" fill="#F3E8DD"/>
<path transform="translate(410,1013)" d="m0 0 4 1h-3v2l-2 1h-12l2-2z" fill="#BAB3AD"/>
<path transform="translate(1196,784)" d="m0 0 3 3v4l-5-1-4-2 3-2z" fill="#817F7E"/>
<path transform="translate(1453,735)" d="m0 0 6 4 4 5-1 2-5-3-4-6z" fill="#B09B73"/>
<path transform="translate(907,640)" d="m0 0v3l-8 7-5 6h-2l2-4 11-11z" fill="#E4CEB0"/>
<path transform="translate(1683,1361)" d="m0 0h6l-4 2-2 3-1 9h-2v-9z" fill="#848280"/>
<path transform="translate(1351,721)" d="m0 0 2 1-10 6-6 6-2-1 8-8 4-3z" fill="#A79575"/>
<path transform="translate(200,1124)" d="m0 0 8 1v2l3-1 2 2 2 1v2l-9-3-6-3z" fill="#C1BAB3"/>
<path transform="translate(720,967)" d="m0 0 12 2-3 3h-6l-3-3z" fill="#D6CDC5"/>
<path transform="translate(843,919)" d="m0 0h13l5 4-8-1-10-2z" fill="#D2CAC2"/>
<path transform="translate(1265,1440)" d="m0 0h1l2 6 5 1-3 2h-6l-2-1 2-5z" fill="#C6BFB8"/>
<path transform="translate(964,1153)" d="m0 0 1 2h3l2 8 2 4-1 3-7-14z" fill="#9E9A96"/>
<path transform="translate(779,1442)" d="m0 0 4 1 1 3-4 1-6 1z" fill="#817F7E"/>
<path transform="translate(973,1331)" d="m0 0h5v15h-1l-1-10-1-2-5-1z" fill="#F3E8DD"/>
<path transform="translate(1359,1120)" d="m0 0 2 1v2l6-1h8v1l-6 1h-10l-6-1v-1z" fill="#9B9692"/>
<path transform="translate(1648,1446)" d="m0 0 5 1 9 1-3 2h-11z" fill="#BBB5AF"/>
<path transform="translate(903,1446)" d="m0 0 7 2v1h-17l4-2z" fill="#F3E8DD"/>
<path transform="translate(307,934)" d="m0 0 5 2 1 4h3l1 4-4-2-6-7z" fill="#C7BFB7"/>
<path transform="translate(405,1333)" d="m0 0 3 1-1 2-20-1v-1z" fill="#F3E8DE"/>
<path transform="translate(1073,1085)" d="m0 0h3l5 7-1 3-7-8z" fill="#CAC2BB"/>
<path transform="translate(317,942)" d="m0 0 9 3 1 3-9-2z" fill="#D6CDC5"/>
<path transform="translate(673,943)" d="m0 0v3l-5 6-3 5-1-2 3-6 5-5z" fill="#83807D"/>
<path transform="translate(355,937)" d="m0 0 2 1-8 7-4 2h-3v-2l9-4z" fill="#D2CAC1"/>
<path transform="translate(1103,1444)" d="m0 0h1v6l-1 1h-10l-3-2h11z" fill="#EDE2D6"/>
<path transform="translate(274,1444)" d="m0 0 7 1 4 2 3 1v2l-9-2z" fill="#F3E8DD"/>
<path transform="translate(1054,1429)" d="m0 0h1l-1 7-4 6-2-1z" fill="#858281"/>
<path transform="translate(316,1057)" d="m0 0 2 1-9 9-1-3 3-4z" fill="#D8D3CE"/>
<path transform="translate(351,1039)" d="m0 0h6l-3 2-9 1 1 3-4-2v-2z" fill="#F3E8DD"/>
<path transform="translate(766,1118)" d="m0 0 9 1 3 2h-8l-5 1v-3z" fill="#F3E8DD"/>
<path transform="translate(923,1027)" d="m0 0h2l3 8-9-2 1-2 3 1z" fill="#858381"/>
<path transform="translate(530,900)" d="m0 0h9l3 4v5l-4-5-1-2-7-1z" fill="#D4CBC3"/>
<path transform="translate(1176,758)" d="m0 0 4 1v2h-18v-1l11-1z" fill="#EDDECB"/>
<path transform="translate(825,1442)" d="m0 0 4 2h2l-1 4-4-1z" fill="#817F7E"/>
<path transform="translate(1613,1405)" d="m0 0h3l3 3v2l-6-2z" fill="#817F7E"/>
<path transform="translate(1503,1445)" d="m0 0" fill="#FEFEFE"/>
<path transform="translate(1462,1445)" d="m0 0" fill="#817F7E"/>
<path transform="translate(1508,1435)" d="m0 0" fill="#817F7E"/>
<path transform="translate(768,1110)" d="m0 0" fill="#817F7E"/>
<path transform="translate(1210,925)" d="m0 0" fill="#817F7E"/>
<path transform="translate(1208,923)" d="m0 0" fill="#817F7E"/>
</svg>
